<svg width="192" height="192" version="1.1" viewBox="0 0 50.8 50.8" xmlns="http://www.w3.org/2000/svg">
 <defs>
  <linearGradient id="linearGradient848" x1="-545.25" x2="-531.6" y1="-61.26" y2="-61.26" gradientTransform="translate(15.134,10.991)" gradientUnits="userSpaceOnUse">
   <stop stop-color="#0083ba" offset="0"/>
   <stop stop-color="#d0d600" offset="1"/>
  </linearGradient>
 </defs>
 <g transform="translate(0 -246.2)">
  <g transform="matrix(4.7293 0 0 4.7293 -.0030484 -1112.2)">
   <g transform="matrix(.76301 0 0 .76301 401.87 341.26)">
    <path d="m-521.02-69.448a5.6695 5.6695 0 0 0-5.6695 5.6695 5.6695 5.6695 0 0 0 0.29996 1.7973c2.0647-1.9042 5.9212-4.0216 9.4438-5.7389a5.6695 5.6695 0 0 0-4.0743-1.7279zm5.6405 5.1474c-1.0883 0.25418-2.2632 0.60877-3.2333 1.0931-2.521 1.2586-4.6337 2.7144-5.7533 3.9979a5.6695 5.6695 0 0 0 3.3461 1.1006 5.6695 5.6695 0 0 0 5.6695-5.6695 5.6695 5.6695 0 0 0-0.029-0.52208z" fill="#fff"/>
    <g transform="translate(3.8515,-12.832)">
     <path d="m-529.48-47.902c0.84315-2.8993 13.009-7.7359 13.009-7.7359-1.8566 2.3714-1.6967 2.6316-1.8314 4.3518 0 0-2.8429 0.26121-4.6631 1.1607-2.2957 1.1345-4.543 2.5698-4.9941 3.6089-0.45108 1.0391 2.5168 1.1343 1.899 1.1512-2.471 0.06754-4.2623 0.36273-3.4191-2.5366z" fill="#105583"/>
     <path d="m-529.89-47.583c0.87027-3.0189 13.427-8.0549 13.427-8.0549-1.9163 2.4692-1.7513 2.7401-1.8903 4.5312 0 0-2.9343 0.27198-4.8131 1.2086-2.3695 1.1812-3.9282 1.5028-5.269 2.6428-0.42464 0.36105-0.95689 1.5372-0.95689 1.5372s-0.36682-0.32241-0.45061-0.54188c-0.15738-0.41223-0.12927-0.91088-0.0473-1.3229 0-1.5e-5 5e-5 0 5e-5 0z" fill="url(#linearGradient848)"/>
    </g>
   </g>
  </g>
 </g>
</svg>
